<?xml version="1.0" encoding="utf-8"?>
<!-- Generator: Adobe Illustrator 19.0.0, SVG Export Plug-In . SVG Version: 6.00 Build 0)  -->
<svg version="1.1" id="Layer_1" xmlns="http://www.w3.org/2000/svg" xmlns:xlink="http://www.w3.org/1999/xlink" x="0px" y="0px"
	 viewBox="3 337.5 601.7 166.4" style="enable-background:new 3 337.5 601.7 166.4;" xml:space="preserve">
<style type="text/css">
	.st0{fill:#FFFFFF;}
	.st1{fill:#CBCBCB;}
	.st2{fill:url(#SVGID_1_);}
	.st3{fill:#4BA8D5;}
	.st4{fill:url(#SVGID_2_);}
	.st5{fill:url(#SVGID_3_);}
	.st6{fill:url(#SVGID_4_);}
	.st7{fill:#F57F20;}
	.st8{fill:#F15722;}
	.st9{fill:url(#SVGID_5_);}
</style>
<g>
	<path class="st0" d="M220.6,418.3v-0.2c0-16,11.9-29.2,28.2-29.2c9.4,0,15.2,3.2,20.7,7.9c0.4,0.4,0.8,1,0.8,1.7
		c0,1.1-1,2.1-2.2,2.1c-0.6,0-1.1-0.2-1.5-0.6c-4.7-4.3-10.1-7.3-18-7.3c-13.6,0-23.8,11.1-23.8,25.3v0.2
		c0,14.3,10.4,25.4,23.9,25.4c7.7,0,13.1-2.7,18.4-7.8c0.3-0.3,0.8-0.6,1.5-0.6c1,0,2,1,2,2c0,0.6-0.3,1.1-0.6,1.5
		c-5.7,5.3-11.9,8.8-21.4,8.8C232.5,447.3,220.6,434.5,220.6,418.3z"/>
	<path class="st0" d="M297.7,391.7c0-1.1,1-2.1,2.1-2.1s2.1,1,2.1,2.1v52.9c0,1.1-1,2.1-2.1,2.1s-2.1-1-2.1-2.1V391.7z"/>
	<path class="st0" d="M333.8,391.7c0-1.1,1-2.1,2.1-2.1s2.1,1,2.1,2.1V427l35.7-36.8c0.3-0.3,0.8-0.6,1.5-0.6c1,0,2.1,1,2.1,2.1
		c0,0.6-0.2,1-0.6,1.5L355,414.8l23,28.2c0.4,0.5,0.6,0.9,0.6,1.5c0,1.1-1,2.2-2.2,2.2c-0.7,0-1.3-0.4-1.6-0.8L352,417.8L338,432
		v12.6c0,1.1-1,2.1-2.1,2.1s-2.1-1-2.1-2.1V391.7z"/>
	<path class="st0" d="M406,391.7c0-1.1,1-2.1,2.1-2.1s2.1,1,2.1,2.1v50.8h31.5c1,0,1.9,0.9,1.9,1.9s-0.9,1.9-1.9,1.9h-33.6
		c-1.1,0-2.1-1-2.1-2.1V391.7z"/>
	<path class="st0" d="M463.1,422.9v-31.2c0-1.1,1-2.1,2.1-2.1s2.1,1,2.1,2.1v30.8c0,13.3,7.2,21,19.1,21c11.5,0,18.8-6.9,18.8-20.6
		v-31.2c0-1.1,1-2.1,2.1-2.1s2.1,1,2.1,2.1v30.7c0,16.2-9.4,24.8-23.2,24.8C472.7,447.3,463.1,438.7,463.1,422.9z"/>
	<path class="st0" d="M538.2,391.8c0-1.1,1-2.1,2.1-2.1h0.4c0.9,0,1.5,0.5,2.1,1.2l22,32.4l22-32.4c0.5-0.7,1.2-1.2,2.1-1.2h0.4
		c1.1,0,2.1,1,2.1,2.1v52.8c0,1.1-1,2.1-2.1,2.1s-2.1-1-2.1-2.1v-47.3l-20.7,30.2c-0.5,0.7-1,1-1.8,1c-0.7,0-1.3-0.3-1.8-1
		l-20.7-30.2v47.4c0,1.1-0.9,2-2,2s-2-0.9-2-2V391.8z"/>
</g>
<g>
	<ellipse class="st1" cx="89.4" cy="420.9" rx="78.2" ry="78.2"/>
	<g>
		
			<linearGradient id="SVGID_1_" gradientUnits="userSpaceOnUse" x1="9.3" y1="421.88" x2="165.7" y2="421.88" gradientTransform="matrix(1 0 0 -1 0 840.8701)">
			<stop  offset="0" style="stop-color:#F3F3F3"/>
			<stop  offset="1" style="stop-color:#E4E4E4"/>
		</linearGradient>
		<ellipse class="st2" cx="87.5" cy="419" rx="78.2" ry="78.2"/>
	</g>
	<g>
		<g>
			<path class="st3" d="M90,454.3c-19.3,1.3-36.1-13.3-37.4-32.5c-1.2-16.6,9.5-31.3,24.7-36L73,371.7
				c-21.7,6.6-36.8,27.6-35.1,51.2c1.9,27.4,25.8,48.2,53.2,46.3c3.8-0.3,7.6-1,11.1-2.1L97.9,453C95.3,453.6,92.7,454.1,90,454.3z"
				/>
			
				<linearGradient id="SVGID_2_" gradientUnits="userSpaceOnUse" x1="47.241" y1="451.7891" x2="60.5761" y2="438.4539" gradientTransform="matrix(1 0 0 -1 0 840.8701)">
				<stop  offset="0" style="stop-color:#4BA8D5"/>
				<stop  offset="1" style="stop-color:#033840"/>
			</linearGradient>
			<path class="st4" d="M37.8,422.8c-1.2-16.6,24.2-32.4,39.5-37L73,371.7C51.2,378.2,36.1,399.2,37.8,422.8"/>
		</g>
		<g>
			
				<linearGradient id="SVGID_3_" gradientUnits="userSpaceOnUse" x1="54.6" y1="416.7238" x2="110.6" y2="416.7238" gradientTransform="matrix(1 0 0 -1 0 840.8701)">
				<stop  offset="0" style="stop-color:#6A587C"/>
				<stop  offset="1" style="stop-color:#302736"/>
			</linearGradient>
			<path class="st5" d="M64.2,442.5c12.8,12.8,33.6,12.8,46.4,0.1l-7.7-7.7c-8.6,8.4-22.4,8.4-30.9-0.1s-8.6-22.4-0.1-30.9l-7.7-7.7
				C51.4,408.9,51.4,429.7,64.2,442.5z"/>
			
				<linearGradient id="SVGID_4_" gradientUnits="userSpaceOnUse" x1="53.8134" y1="425.3423" x2="71.6505" y2="418.85" gradientTransform="matrix(1 0 0 -1 0 840.8701)">
				<stop  offset="0" style="stop-color:#6A587C"/>
				<stop  offset="0.1736" style="stop-color:#5B4B69"/>
				<stop  offset="0.4223" style="stop-color:#483B52"/>
				<stop  offset="0.6513" style="stop-color:#3B3043"/>
				<stop  offset="0.8512" style="stop-color:#33293A"/>
				<stop  offset="1" style="stop-color:#302736"/>
			</linearGradient>
			<path class="st6" d="M64.2,442.5c-8.5-8.5-0.8-30.1,7.6-38.7l-7.7-7.7C51.4,408.9,51.4,429.7,64.2,442.5"/>
		</g>
		<g>
			<path class="st7" d="M14,419.3c0,18.8,7.2,37.7,21.5,52c28.7,28.7,75.4,28.7,104.1,0l-15.2-15.2l0,0c-20.3,20.3-53.3,20.3-73.6,0
				c-10.1-10.1-15.2-23.5-15.2-36.8H14z"/>
			<g>
				<path class="st8" d="M50.7,382.5c20.3-20.2,53.3-20.2,73.6,0l15.2-15.2c-29-29-74.6-29.4-104.1,0c-14.3,14.4-21.4,33.2-21.4,52
					h21.5C35.5,406,40.6,392.7,50.7,382.5z"/>
				
					<linearGradient id="SVGID_5_" gradientUnits="userSpaceOnUse" x1="96.0196" y1="496.9875" x2="81.4172" y2="456.8676" gradientTransform="matrix(1 0 0 -1 0 840.8701)">
					<stop  offset="0" style="stop-color:#F15722"/>
					<stop  offset="1" style="stop-color:#8E3C1E"/>
				</linearGradient>
				<path class="st9" d="M35.5,367.3c20.3-20.3,68.5-5,88.8,15.2l15.2-15.2C110.5,338.3,64.9,337.9,35.5,367.3"/>
			</g>
		</g>
	</g>
</g>
<g>
	<path class="st0" d="M230.5,470.8h-6.2v2.9h5.5v1.7h-5.5v2.9h6.3v1.7h-8.2v-11h8.1L230.5,470.8L230.5,470.8z"/>
	<path class="st0" d="M242.9,477.4L242.9,477.4l-3.5-5.1v7.8h-1.9v-11h2.1l3.3,5.2l3.3-5.2h2.1v11h-1.9v-7.9L242.9,477.4z"/>
	<path class="st0" d="M259.9,476.5h-2.2v3.5h-1.9v-11h4.3c2.6,0,4.2,1.4,4.2,3.7C264.3,475.2,262.3,476.5,259.9,476.5z M260,470.8
		h-2.2v3.9h2.2c1.5,0,2.4-0.8,2.4-2C262.4,471.5,261.4,470.8,260,470.8z"/>
	<path class="st0" d="M276.2,480.2c-3.4,0-5.7-2.6-5.7-5.7c0-3.1,2.4-5.7,5.8-5.7s5.7,2.6,5.7,5.7
		C282,477.7,279.6,480.2,276.2,480.2z M276.2,470.7c-2.2,0-3.7,1.7-3.7,3.9c0,2.1,1.6,3.9,3.7,3.9c2.2,0,3.7-1.7,3.7-3.9
		C279.9,472.4,278.4,470.7,276.2,470.7z"/>
	<path class="st0" d="M295,469.1h1.6l2.7,8.2l2.6-8.1h2l-3.8,11.1h-1.7l-2.7-7.9l-2.7,7.9h-1.7l-3.8-11.1h2.1l2.6,8.1L295,469.1z"/>
	<path class="st0" d="M318.7,470.8h-6.2v2.9h5.5v1.7h-5.5v2.9h6.3v1.7h-8.2v-11h8.1L318.7,470.8L318.7,470.8z"/>
	<path class="st0" d="M332.8,480.1l-2.7-3.8h-2.4v3.8h-1.9v-11h4.9c2.5,0,4.1,1.3,4.1,3.5c0,1.8-1.1,2.9-2.6,3.3l3,4.2H332.8z
		 M330.5,470.8h-2.8v3.7h2.8c1.4,0,2.3-0.7,2.3-1.8C332.8,471.5,331.9,470.8,330.5,470.8z"/>
	<path class="st0" d="M343.8,469.1v11h-1.9v-11H343.8z"/>
	<path class="st0" d="M359.1,469.1h1.9v11h-1.6l-6-7.8v7.8h-1.9v-11h1.8l5.9,7.6L359.1,469.1L359.1,469.1z"/>
	<path class="st0" d="M373.7,480.2c-3.4,0-5.7-2.4-5.7-5.7c0-3.1,2.4-5.7,5.7-5.7c1.9,0,3.1,0.5,4.2,1.5l-1.2,1.5
		c-0.8-0.7-1.7-1.2-3.1-1.2c-2,0-3.6,1.8-3.6,3.9c0,2.3,1.5,3.9,3.7,3.9c1,0,2-0.3,2.6-0.8v-2.1h-2.8v-1.7h4.7v4.6
		C377.2,479.5,375.7,480.2,373.7,480.2z"/>
	<path class="st0" d="M400,480.2c-3.2,0-5.6-2.5-5.6-5.7c0-3.1,2.3-5.7,5.7-5.7c2,0,3.2,0.7,4.3,1.7l-1.2,1.4
		c-0.9-0.8-1.8-1.4-3.1-1.4c-2.1,0-3.6,1.7-3.6,3.9c0,2.2,1.5,3.9,3.6,3.9c1.3,0,2.2-0.5,3.2-1.4l1.2,1.3
		C403.3,479.5,402.1,480.2,400,480.2z"/>
	<path class="st0" d="M416.1,480.2c-3.4,0-5.7-2.6-5.7-5.7c0-3.1,2.4-5.7,5.8-5.7s5.7,2.6,5.7,5.7
		C421.9,477.7,419.5,480.2,416.1,480.2z M416.1,470.7c-2.2,0-3.7,1.7-3.7,3.9c0,2.1,1.6,3.9,3.7,3.9c2.2,0,3.7-1.7,3.7-3.9
		C419.8,472.4,418.3,470.7,416.1,470.7z"/>
	<path class="st0" d="M428.9,469.1h1.9v9.2h5.8v1.8h-7.7L428.9,469.1L428.9,469.1z"/>
	<path class="st0" d="M443.3,469.1h1.9v9.2h5.8v1.8h-7.7L443.3,469.1L443.3,469.1z"/>
	<path class="st0" d="M468.2,480.1h-2l-1.1-2.6h-5.2l-1.1,2.6h-2l4.8-11.1h1.8L468.2,480.1z M462.4,471.3l-1.9,4.4h3.8L462.4,471.3z
		"/>
	<path class="st0" d="M483.3,471.9c0,1.3-0.8,2-1.6,2.5c1.3,0.4,2.2,1.2,2.2,2.7c0,2-1.6,3-4.1,3h-5.1v-11h4.9
		C481.9,469.1,483.3,470.2,483.3,471.9z M481.3,472.2c0-0.9-0.7-1.4-1.9-1.4h-2.8v2.9h2.6C480.5,473.7,481.3,473.2,481.3,472.2z
		 M482,476.8c0-0.9-0.7-1.5-2.3-1.5h-3.1v3h3.2C481.2,478.4,482,477.8,482,476.8z"/>
	<path class="st0" d="M496,480.2c-3.4,0-5.7-2.6-5.7-5.7c0-3.1,2.4-5.7,5.8-5.7s5.7,2.6,5.7,5.7C501.7,477.7,499.4,480.2,496,480.2z
		 M496,470.7c-2.2,0-3.7,1.7-3.7,3.9c0,2.1,1.6,3.9,3.7,3.9c2.2,0,3.7-1.7,3.7-3.9C499.7,472.4,498.2,470.7,496,470.7z"/>
	<path class="st0" d="M515.8,480.1l-2.7-3.8h-2.4v3.8h-1.9v-11h4.9c2.5,0,4.1,1.3,4.1,3.5c0,1.8-1.1,2.9-2.6,3.3l3,4.2H515.8z
		 M513.5,470.8h-2.8v3.7h2.8c1.4,0,2.3-0.7,2.3-1.8C515.8,471.5,514.9,470.8,513.5,470.8z"/>
	<path class="st0" d="M535.3,480.1h-2l-1.1-2.6H527l-1.1,2.6h-2l4.8-11.1h1.8L535.3,480.1z M529.5,471.3l-1.9,4.4h3.8L529.5,471.3z"
		/>
	<path class="st0" d="M545.1,480.1h-1.9v-9.2h-3.5v-1.8h8.9v1.8h-3.5V480.1z"/>
	<path class="st0" d="M557.3,469.1v11h-1.9v-11H557.3z"/>
	<path class="st0" d="M570.2,480.2c-3.4,0-5.7-2.6-5.7-5.7c0-3.1,2.4-5.7,5.8-5.7c3.4,0,5.7,2.6,5.7,5.7
		C576,477.7,573.6,480.2,570.2,480.2z M570.2,470.7c-2.2,0-3.7,1.7-3.7,3.9c0,2.1,1.6,3.9,3.7,3.9c2.2,0,3.7-1.7,3.7-3.9
		C573.9,472.4,572.4,470.7,570.2,470.7z"/>
	<path class="st0" d="M590.6,469.1h1.9v11h-1.6l-6-7.8v7.8H583v-11h1.8l5.9,7.6v-7.6H590.6z"/>
</g>
</svg>
