<?xml version="1.0" encoding="iso-8859-1"?>
<!-- Generator: Adobe Illustrator 19.0.0, SVG Export Plug-In . SVG Version: 6.00 Build 0)  -->
<svg xmlns="http://www.w3.org/2000/svg" xmlns:xlink="http://www.w3.org/1999/xlink" version="1.1" id="Layer_1" x="0px" y="0px" viewBox="0 0 32 32" style="enable-background:new 0 0 32 32;" xml:space="preserve" width="32px" height="32px">
<g>
	<g>
		<g>
			<path d="M256,132.741c-67.963,0-123.259,55.296-123.259,123.259S188.037,379.259,256,379.259S379.259,323.963,379.259,256     S323.963,132.741,256,132.741z M256,360.296c-57.509,0-104.296-46.787-104.296-104.296S198.491,151.704,256,151.704     S360.296,198.491,360.296,256S313.509,360.296,256,360.296z" fill="#fa1e1e"/>
			<path d="M256,0C114.843,0,0,114.843,0,256s114.843,256,256,256s256-114.843,256-256S397.157,0,256,0z M256,493.037     C125.296,493.037,18.963,386.704,18.963,256S125.296,18.963,256,18.963S493.037,125.296,493.037,256S386.704,493.037,256,493.037     z" fill="#fa1e1e"/>
		</g>
	</g>
</g>
<g>
</g>
<g>
</g>
<g>
</g>
<g>
</g>
<g>
</g>
<g>
</g>
<g>
</g>
<g>
</g>
<g>
</g>
<g>
</g>
<g>
</g>
<g>
</g>
<g>
</g>
<g>
</g>
<g>
</g>
</svg>
